<svg width="54" height="50" viewBox="0 0 54 50" fill="none" xmlns="http://www.w3.org/2000/svg">
<path d="M33.266 1.87377L45.5366 23.127C46.2057 24.2863 46.2057 25.7144 45.5366 26.8736L33.266 48.1269C32.5968 49.2861 31.36 50.0001 30.0215 50.0001H37.2123C38.5508 50.0001 39.7876 49.2861 40.4568 48.1269L52.7274 26.8736C53.3965 25.7144 53.3965 24.2863 52.7274 23.127L40.4568 1.87377C39.7876 0.714544 38.5506 0.000488281 37.2123 0.000488281H30.0215C31.36 0.000488281 32.5968 0.714544 33.266 1.87377Z" fill="#39435A"/>
<path d="M33.266 1.87377L33.8127 2.82078C34.742 2.83436 35.7073 2.9107 36.6924 3.05552C38.6527 3.34389 40.4599 3.86951 42.0038 4.55371L40.4565 1.87377C39.7876 0.714544 38.5508 0.000488281 37.2123 0.000488281H30.0215C31.36 0.000488281 32.5968 0.714544 33.266 1.87377Z" fill="#2C374C"/>
<path d="M19.4237 1.87377L31.6942 23.127C32.3634 24.2863 32.3634 25.7144 31.6942 26.8736L19.4237 48.1269C18.7545 49.2861 17.5177 50.0001 16.1791 50.0001H23.3699C24.7085 50.0001 25.9453 49.2861 26.6145 48.1269L38.885 26.8736C39.5542 25.7144 39.5542 24.2863 38.885 23.127L26.6145 1.87377C25.9451 0.714544 24.7083 0.000488281 23.3698 0.000488281H16.1791C17.5175 0.000488281 18.7543 0.714544 19.4237 1.87377Z" fill="#39435A"/>
<path d="M19.9632 48.1264L7.69268 26.8731C7.0235 25.7139 7.0235 24.2858 7.69268 23.1265L19.9632 1.87328C20.6324 0.714055 21.8692 0 23.2077 0H16.017C14.6784 0 13.4416 0.714055 12.7724 1.87328L0.501886 23.1265C-0.167295 24.2858 -0.167295 25.7139 0.501886 26.8731L12.7724 48.1264C13.4416 49.2856 14.6784 49.9996 16.017 49.9996H23.2077C21.8692 49.9996 20.6324 49.2856 19.9632 48.1264Z" fill="#435F94"/>
<path d="M27.0524 48.1265L14.7819 26.8732C14.1127 25.714 14.1127 24.2859 14.7819 23.1267L27.0524 1.87341C27.7216 0.714544 28.9584 0.000488281 30.297 0.000488281H23.1062C21.7676 0.000488281 20.5308 0.714544 19.8617 1.87377L7.59112 23.127C6.92194 24.2863 6.92194 25.7144 7.59112 26.8736L19.8617 48.1269C20.5308 49.2861 21.7676 50.0001 23.1062 50.0001H30.297C28.9584 49.9998 27.7216 49.2857 27.0524 48.1265Z" fill="#377DFF"/>
<path d="M34.2788 48.1265L22.0083 26.8732C21.3391 25.714 21.3391 24.2859 22.0083 23.1267L34.2788 1.87341C34.948 0.714544 36.1848 0.000488281 37.5234 0.000488281H30.3326C28.994 0.000488281 27.7572 0.714544 27.088 1.87377L14.8175 23.127C14.1483 24.2863 14.1483 25.7144 14.8175 26.8736L27.088 48.1269C27.7572 49.2861 28.994 50.0001 30.3326 50.0001H37.5234C36.1848 49.9998 34.948 49.2857 34.2788 48.1265Z" fill="#37DBFF"/>
</svg>
