<svg width="43" height="42" viewBox="0 0 43 42" fill="none" xmlns="http://www.w3.org/2000/svg">
<path fill-rule="evenodd" clip-rule="evenodd" d="M32.8158 19.9393C33.4016 19.3536 34.3513 19.3536 34.9371 19.9393L40.1871 25.1893C40.7729 25.7751 40.7729 26.7249 40.1871 27.3107L27.9371 39.5607C27.3513 40.1464 26.4016 40.1464 25.8158 39.5607L20.5658 34.3107C19.98 33.7249 19.98 32.7751 20.5658 32.1893L32.8158 19.9393ZM23.7478 33.25L26.8765 36.3787L37.0051 26.25L33.8765 23.1213L23.7478 33.25Z" fill="#0B0F15"/>
<path fill-rule="evenodd" clip-rule="evenodd" d="M3.0658 2.43931C3.4353 2.06981 3.97046 1.91923 4.47843 2.04185L29.8534 8.16685C30.4212 8.30389 30.8578 8.75806 30.9723 9.3308L33.5973 22.4558C33.6957 22.9476 33.5418 23.456 33.1871 23.8106L24.4371 32.5606C24.0825 32.9153 23.5741 33.0692 23.0823 32.9708L9.95729 30.3458C9.38455 30.2313 8.93039 29.7947 8.79334 29.2269L2.66834 3.85193C2.54573 3.34397 2.69631 2.80881 3.0658 2.43931ZM6.16052 5.53403L11.4848 27.5919L22.8835 29.8717L30.4982 22.257L28.2184 10.8584L6.16052 5.53403Z" fill="#0B0F15"/>
<path fill-rule="evenodd" clip-rule="evenodd" d="M3.0658 2.43934C3.65159 1.85355 4.60134 1.85355 5.18712 2.43934L18.4626 15.7148C19.0484 16.3006 19.0484 17.2504 18.4626 17.8362C17.8768 18.4219 16.9271 18.4219 16.3413 17.8362L3.0658 4.56066C2.48002 3.97487 2.48002 3.02513 3.0658 2.43934Z" fill="#0B0F15"/>
<path fill-rule="evenodd" clip-rule="evenodd" d="M19.8765 17.25C18.7719 17.25 17.8765 18.1454 17.8765 19.25C17.8765 20.3546 18.7719 21.25 19.8765 21.25C20.981 21.25 21.8765 20.3546 21.8765 19.25C21.8765 18.1454 20.981 17.25 19.8765 17.25ZM14.8765 19.25C14.8765 16.4886 17.115 14.25 19.8765 14.25C22.6379 14.25 24.8765 16.4886 24.8765 19.25C24.8765 22.0114 22.6379 24.25 19.8765 24.25C17.115 24.25 14.8765 22.0114 14.8765 19.25Z" fill="#0B0F15"/>
</svg>
