<svg width="40" height="42" viewBox="0 0 40 42" fill="none" xmlns="http://www.w3.org/2000/svg">
<path fill-rule="evenodd" clip-rule="evenodd" d="M18.6265 3.25C18.096 3.25 17.5873 3.46071 17.2123 3.83579C16.8372 4.21086 16.6265 4.71957 16.6265 5.25V5.5475L16.6265 5.55348C16.623 6.40914 16.3695 7.24513 15.897 7.95854C15.4246 8.67195 14.7538 9.23164 13.9674 9.56871C13.8327 9.62641 13.6907 9.66396 13.5457 9.68042C12.824 9.93807 12.0455 10.0028 11.2878 9.86544C10.4252 9.70904 9.62926 9.29781 9.00257 8.68479L8.9908 8.67316L8.8858 8.56816C8.70006 8.38221 8.47889 8.2341 8.2361 8.13345C7.9933 8.0328 7.73305 7.981 7.47021 7.981C7.20738 7.981 6.94713 8.0328 6.70433 8.13345C6.46154 8.2341 6.24096 8.38162 6.05521 8.56757L6.05403 8.56875C5.86808 8.7545 5.72056 8.97507 5.61992 9.21787C5.51927 9.46066 5.46746 9.72092 5.46746 9.98375C5.46746 10.2466 5.51927 10.5068 5.61992 10.7496C5.72056 10.9924 5.86808 11.213 6.05403 11.3987L6.15963 11.5043L6.17126 11.5161C6.78428 12.1428 7.1955 12.9388 7.35191 13.8014C7.50549 14.6484 7.40645 15.5215 7.06767 16.3122C6.76074 17.1197 6.22208 17.819 5.51886 18.3219C4.80278 18.8341 3.94919 19.119 3.06904 19.1396C3.05735 19.1399 3.04566 19.14 3.03396 19.14H2.87646C2.34603 19.14 1.83732 19.3507 1.46225 19.7258C1.08718 20.1009 0.876465 20.6096 0.876465 21.14C0.876465 21.6704 1.08718 22.1791 1.46225 22.5542C1.83732 22.9293 2.34603 23.14 2.87646 23.14H3.17995C4.03561 23.1434 4.8716 23.397 5.585 23.8694C6.29616 24.3404 6.85458 25.0084 7.19199 25.7917C7.54336 26.5918 7.64784 27.4787 7.49191 28.3386C7.3355 29.2012 6.92428 29.9972 6.31126 30.6239L6.29962 30.6357L6.19462 30.7407C6.00867 30.9264 5.86056 31.1476 5.75992 31.3904C5.65927 31.6332 5.60746 31.8934 5.60746 32.1562C5.60746 32.4191 5.65927 32.6793 5.75992 32.9221C5.86056 33.1649 6.00808 33.3855 6.19403 33.5713L6.19522 33.5724C6.38096 33.7584 6.60153 33.9059 6.84433 34.0065C7.08713 34.1072 7.34739 34.159 7.61021 34.159C7.87304 34.159 8.1333 34.1072 8.37609 34.0065C8.61889 33.9059 8.83947 33.7584 9.02521 33.5724L9.13079 33.4669L9.14257 33.4552C9.76926 32.8422 10.5652 32.431 11.4278 32.2746C12.2749 32.121 13.148 32.22 13.9386 32.5588C14.7461 32.8657 15.4454 33.4044 15.9484 34.1076C16.4606 34.8237 16.7455 35.6773 16.7661 36.5574C16.7663 36.5691 16.7665 36.5808 16.7665 36.5925V36.75C16.7665 37.2804 16.9772 37.7891 17.3523 38.1642C17.7273 38.5393 18.236 38.75 18.7665 38.75C19.2969 38.75 19.8056 38.5393 20.1807 38.1642C20.5558 37.7891 20.7665 37.2804 20.7665 36.75V36.4525L20.7665 36.4465C20.7699 35.5909 21.0234 34.7549 21.4959 34.0415C21.9669 33.3303 22.6349 32.7719 23.4182 32.4345C24.2183 32.0831 25.1052 31.9786 25.9651 32.1346C26.8277 32.291 27.6237 32.7022 28.2504 33.3152L28.2621 33.3268L28.3671 33.4318C28.5529 33.6178 28.774 33.7659 29.0168 33.8666C29.2596 33.9672 29.5199 34.019 29.7827 34.019C30.0455 34.019 30.3058 33.9672 30.5486 33.8666C30.7914 33.7659 31.012 33.6184 31.1977 33.4324L31.1989 33.4312C31.3848 33.2455 31.5324 33.0249 31.633 32.7821C31.7337 32.5393 31.7855 32.2791 31.7855 32.0163C31.7855 31.7534 31.7337 31.4932 31.633 31.2504C31.5324 31.0076 31.3848 30.787 31.1989 30.6012L31.0933 30.4957L31.0817 30.4839C30.4687 29.8572 30.0574 29.0612 29.901 28.1986C29.7451 27.3387 29.8496 26.4518 30.2009 25.6517C30.5383 24.8684 31.0968 24.2004 31.8079 23.7294C32.5213 23.257 33.3573 23.0034 34.213 23L34.219 23L34.3765 23C34.9069 23 35.4156 22.7893 35.7907 22.4142C36.1658 22.0391 36.3765 21.5304 36.3765 21C36.3765 20.4696 36.1658 19.9609 35.7907 19.5858C35.4156 19.2107 34.9069 19 34.3765 19H34.079L34.073 19C33.2173 18.9966 32.3813 18.743 31.6679 18.2706C30.9545 17.7981 30.3948 17.1274 30.0578 16.3409C30.0001 16.2063 29.9625 16.0642 29.946 15.9193C29.6884 15.1976 29.6236 14.419 29.761 13.6614C29.9174 12.7988 30.3287 12.0028 30.9417 11.3761L30.9533 11.3643L31.0583 11.2593C31.2443 11.0736 31.3924 10.8524 31.493 10.6096C31.5937 10.3668 31.6455 10.1066 31.6455 9.84375C31.6455 9.58092 31.5937 9.32067 31.493 9.07787C31.3924 8.83508 31.2448 8.6145 31.0589 8.42875L31.0577 8.42757C30.872 8.24162 30.6514 8.0941 30.4086 7.99345C30.1658 7.8928 29.9055 7.841 29.6427 7.841C29.3799 7.841 29.1196 7.8928 28.8768 7.99345C28.634 8.0941 28.4135 8.24162 28.2277 8.42757L28.1221 8.53316L28.1104 8.54479C27.4837 9.15781 26.6877 9.56904 25.8251 9.72544C24.9651 9.88137 24.0783 9.7769 23.2781 9.42552C22.4949 9.08811 21.8269 8.5297 21.3559 7.81854C20.8834 7.10513 20.6299 6.26914 20.6265 5.41348L20.6265 5.4075V5.25C20.6265 4.71957 20.4158 4.21086 20.0407 3.83579C19.6656 3.46071 19.1569 3.25 18.6265 3.25ZM31.5765 26.25L32.9488 26.8556C32.8368 27.1093 32.8034 27.3906 32.8529 27.6634C32.9019 27.934 33.0303 28.1838 33.2215 28.3812L33.319 28.4787C33.3188 28.4786 33.3192 28.4789 33.319 28.4787C33.7837 28.943 34.1528 29.4948 34.4043 30.1015C34.656 30.7085 34.7855 31.3592 34.7855 32.0163C34.7855 32.6733 34.656 33.324 34.4043 33.931C34.1528 34.5377 33.7842 35.0889 33.3196 35.5532C32.8554 36.0178 32.3041 36.3864 31.6974 36.6379C31.0904 36.8895 30.4398 37.019 29.7827 37.019C29.1256 37.019 28.475 36.8895 27.868 36.6379C27.261 36.3862 26.7096 36.0175 26.2452 35.5526L26.1478 35.4551C25.9503 35.2638 25.7005 35.1355 25.4299 35.0864C25.1571 35.037 24.8757 35.0704 24.6221 35.1823L24.6074 35.1887C24.3587 35.2953 24.1465 35.4723 23.9971 35.6979C23.8481 35.9229 23.768 36.1863 23.7665 36.4561V36.75C23.7665 38.0761 23.2397 39.3479 22.302 40.2855C21.3643 41.2232 20.0925 41.75 18.7665 41.75C17.4404 41.75 16.1686 41.2232 15.2309 40.2855C14.2933 39.3479 13.7665 38.0761 13.7665 36.75V36.6132C13.7572 36.34 13.6675 36.0754 13.5083 35.8528C13.3463 35.6264 13.12 35.4539 12.8587 35.3578C12.829 35.3469 12.7997 35.3351 12.7708 35.3223C12.5172 35.2104 12.2358 35.177 11.963 35.2264C11.6925 35.2755 11.4426 35.4038 11.2452 35.5951L11.1477 35.6926C11.1475 35.6928 11.1479 35.6924 11.1477 35.6926C10.6835 36.1572 10.1317 36.5264 9.52492 36.7779C8.91793 37.0295 8.26729 37.159 7.61021 37.159C6.95314 37.159 6.3025 37.0295 5.69551 36.7779C5.08904 36.5265 4.53802 36.1581 4.07389 35.6938M13.6265 5.54405V5.25C13.6265 3.92392 14.1533 2.65215 15.0909 1.71447C16.0286 0.776784 17.3004 0.25 18.6265 0.25C19.9525 0.25 21.2243 0.776784 22.162 1.71447C23.0997 2.65215 23.6265 3.92392 23.6265 5.25V5.40388C23.628 5.67365 23.7081 5.93714 23.8571 6.16209C24.0065 6.3877 24.2186 6.56469 24.4674 6.67129L24.4821 6.67771C24.7357 6.78964 25.0171 6.82303 25.2899 6.77357C25.5604 6.72452 25.8102 6.5962 26.0077 6.40498L26.1052 6.30743C26.105 6.30763 26.1054 6.30723 26.1052 6.30743C26.5695 5.84282 27.1213 5.47365 27.728 5.22213C28.335 4.97051 28.9856 4.841 29.6427 4.841C30.2998 4.841 30.9504 4.97051 31.5574 5.22213C32.1644 5.47375 32.7159 5.84255 33.1802 6.30743L32.119 7.3675L33.179 6.30625C33.1794 6.30664 33.1798 6.30704 33.1802 6.30743C33.6445 6.77155 34.0129 7.32257 34.2643 7.92905C34.516 8.53604 34.6455 9.18667 34.6455 9.84375C34.6455 10.5008 34.516 11.1515 34.2643 11.7585C34.0128 12.3652 33.6442 12.9164 33.1796 13.3807L33.0816 13.4787C33.0831 13.4771 33.0847 13.4755 33.0863 13.4739L32.014 12.425L33.0746 13.4857L33.0816 13.4787C32.8903 13.6762 32.762 13.926 32.7129 14.1966C32.6634 14.4694 32.6968 14.7507 32.8088 15.0044C32.8572 15.1142 32.8922 15.2292 32.9132 15.3468C32.8759 15.2871 32.8431 15.2243 32.8152 15.1591L31.4365 15.75H32.9365V15.61C32.9365 15.5215 32.9286 15.4334 32.9132 15.3468C33.018 15.5148 33.1579 15.6591 33.3244 15.7693C33.5493 15.9183 33.8127 15.9984 34.0824 16H34.079V17.5L34.0849 16C34.0841 16 34.0833 16 34.0824 16H34.3765C35.7025 16 36.9743 16.5268 37.912 17.4645C38.8497 18.4021 39.3765 19.6739 39.3765 21C39.3765 22.3261 38.8497 23.5979 37.912 24.5355C36.9743 25.4732 35.7025 26 34.3765 26H34.2226C34.2234 26 34.2242 26 34.2249 26L34.219 24.5V26H34.2226C33.9528 26.0015 33.6893 26.0817 33.4644 26.2307C33.2388 26.3801 33.0618 26.5922 32.9552 26.8409L31.5765 26.25" fill="#0B0F15"/>
</svg>
